<svg width="31" height="31" viewBox="0 0 31 31" fill="none" xmlns="http://www.w3.org/2000/svg">
<path d="M30.0967 21.9609L23.5342 19.1484C23.3584 19.0898 23.1826 19.0312 22.9483 19.0312C22.5381 19.0312 22.128 19.2656 21.8936 19.5586L18.9639 23.1328C14.3936 20.9648 10.7608 17.332 8.5928 12.7617L12.167 9.83203C12.46 9.59766 12.6944 9.1875 12.6944 8.71875C12.6944 8.54297 12.6358 8.36719 12.5772 8.19141L9.76467 1.62891C9.5303 1.10156 9.00295 0.75 8.41702 0.75C8.35842 0.75 8.24123 0.808594 8.12405 0.808594L2.0303 2.21484C1.38577 2.39062 0.975609 2.91797 0.975609 3.5625C0.975609 18.6211 13.1045 30.75 28.1631 30.75C28.8076 30.75 29.335 30.3398 29.5108 29.6953L30.917 23.6016C30.917 23.4844 30.917 23.3672 30.917 23.3086C30.917 22.7227 30.5655 22.1953 30.0967 21.9609Z" fill="#0C0023"/>
</svg>
