<svg width="30" height="23" viewBox="0 0 30 23" fill="none" xmlns="http://www.w3.org/2000/svg">
<path d="M29.4131 7.94141C28.0655 8.99609 26.3662 10.2852 20.3897 14.6211C19.2178 15.5 17.0498 17.4336 14.999 17.4336C12.8897 17.4336 10.7803 15.5 9.54983 14.6211C3.57327 10.2852 1.87405 8.99609 0.52639 7.94141C0.292015 7.76562 -0.000953674 7.94141 -0.000953674 8.23438V20.1875C-0.000953674 21.7695 1.22952 23 2.81155 23H27.1865C28.71 23 29.999 21.7695 29.999 20.1875V8.23438C29.999 7.94141 29.6475 7.76562 29.4131 7.94141ZM14.999 15.5C16.3467 15.5586 18.2803 13.8008 19.2764 13.0977C27.0694 7.47266 27.6553 6.94531 29.4131 5.53906C29.7647 5.30469 29.999 4.89453 29.999 4.42578V3.3125C29.999 1.78906 28.71 0.5 27.1865 0.5H2.81155C1.22952 0.5 -0.000953674 1.78906 -0.000953674 3.3125V4.42578C-0.000953674 4.89453 0.174828 5.30469 0.52639 5.53906C2.2842 6.94531 2.87014 7.47266 10.6631 13.0977C11.6592 13.8008 13.5928 15.5586 14.999 15.5Z" fill="#0C0023"/>
</svg>
