<svg width="24" height="31" viewBox="0 0 24 31" fill="none" xmlns="http://www.w3.org/2000/svg">
<path d="M10.8272 30.1641C11.3545 30.9844 12.585 30.9844 13.1123 30.1641C21.667 17.8594 23.249 16.5703 23.249 12C23.249 5.78906 18.21 0.75 11.999 0.75C5.72952 0.75 0.749046 5.78906 0.749046 12C0.749046 16.5703 2.27248 17.8594 10.8272 30.1641ZM11.999 16.6875C9.36233 16.6875 7.31155 14.6367 7.31155 12C7.31155 9.42188 9.36233 7.3125 11.999 7.3125C14.5772 7.3125 16.6865 9.42188 16.6865 12C16.6865 14.6367 14.5772 16.6875 11.999 16.6875Z" fill="#0C0023"/>
</svg>
