<svg width="24" height="16" viewBox="0 0 24 16" fill="none" xmlns="http://www.w3.org/2000/svg">
<path d="M22.7051 2.75195C22.459 1.76758 21.6797 0.988281 20.7363 0.742188C18.9727 0.25 12 0.25 12 0.25C12 0.25 4.98633 0.25 3.22266 0.742188C2.2793 0.988281 1.5 1.76758 1.25391 2.75195C0.761719 4.47461 0.761719 8.16602 0.761719 8.16602C0.761719 8.16602 0.761719 11.8164 1.25391 13.5801C1.5 14.5645 2.2793 15.3027 3.22266 15.5488C4.98633 16 12 16 12 16C12 16 18.9727 16 20.7363 15.5488C21.6797 15.3027 22.459 14.5645 22.7051 13.5801C23.1973 11.8164 23.1973 8.16602 23.1973 8.16602C23.1973 8.16602 23.1973 4.47461 22.7051 2.75195ZM9.70312 11.4883V4.84375L15.5273 8.16602L9.70312 11.4883Z" fill="#0C0023"/>
</svg>
